<?xml version="1.0" encoding="UTF-8" standalone="no"?>
<svg
   xmlns:dc="http://purl.org/dc/elements/1.1/"
   xmlns:cc="http://creativecommons.org/ns#"
   xmlns:rdf="http://www.w3.org/1999/02/22-rdf-syntax-ns#"
   xmlns:svg="http://www.w3.org/2000/svg"
   xmlns="http://www.w3.org/2000/svg"
   xmlns:sodipodi="http://sodipodi.sourceforge.net/DTD/sodipodi-0.dtd"
   xmlns:inkscape="http://www.inkscape.org/namespaces/inkscape"
   version="1.1"
   id="レイヤー_1"
   x="0px"
   y="0px"
   viewBox="0 0 350 55"
   style="enable-background:new 0 0 350 55;"
   xml:space="preserve"
   inkscape:version="0.91 r13725"
   sodipodi:docname="ktc-logo__white.svg"><metadata
     id="metadata113"><rdf:RDF><cc:Work
         rdf:about=""><dc:format>image/svg+xml</dc:format><dc:type
           rdf:resource="http://purl.org/dc/dcmitype/StillImage" /></cc:Work></rdf:RDF></metadata><defs
     id="defs111" /><sodipodi:namedview
     pagecolor="#ffffff"
     bordercolor="#666666"
     borderopacity="1"
     objecttolerance="10"
     gridtolerance="10"
     guidetolerance="10"
     inkscape:pageopacity="0"
     inkscape:pageshadow="2"
     inkscape:window-width="1000"
     inkscape:window-height="690"
     id="namedview109"
     showgrid="false"
     inkscape:zoom="1.33"
     inkscape:cx="189.93783"
     inkscape:cy="27.5"
     inkscape:window-x="728"
     inkscape:window-y="160"
     inkscape:window-maximized="0"
     inkscape:current-layer="レイヤー_1" /><style
     type="text/css"
     id="style3">
	.st0{fill:#2B6986;}
</style><g
     id="g5"
     style="fill:#ffffff"><g
       id="g7"
       style="fill:#ffffff"><path
         class="st0"
         d="M71,19.8l0.3,0.5l2.5-1.6l-0.3-0.5c-1.1-1.6-2.1-3-3-4.1l-0.3-0.4l-2.4,1.5l0.4,0.5    C69.2,16.9,70.1,18.3,71,19.8z"
         id="path9"
         style="fill:#ffffff" /><path
         class="st0"
         d="M81.3,33c-2.2,0-3.5,0-4-0.1l-1.6-0.3c-0.5-0.1-0.9-0.2-1.3-0.4c-0.4-0.2-0.7-0.5-0.9-0.8    c-0.1-0.1-0.2-0.3-0.2-0.4l2.1,1.5l0.3-0.4c1.8-2.5,2.8-5.6,2.9-9.2H83v9.7h2.9v-9.7h4.1v-2.5H78.7v-2.5c1.2-0.1,2.8-0.3,4.9-0.6    c2.4-0.4,4.1-0.7,5-0.9l0.7-0.2l-1.5-2.4l-0.4,0.1c-1.1,0.3-2.7,0.7-4.9,1c-2.2,0.3-4.3,0.6-6.2,0.7l-0.5,0v7c0,1.5-0.2,3-0.6,4.5    c-0.4,1.4-0.9,2.6-1.6,3.5L73.3,31c-0.1-0.2-0.1-0.4-0.1-0.6v-8h-5.9v2.5h3v6.3c-0.3,0.3-0.8,0.6-1.4,1c-0.7,0.5-1.3,0.8-1.7,1    l-0.5,0.2l1.1,2.7l0.5-0.2c1.1-0.5,2.3-1.4,3.5-2.5c0.6,0.8,1.5,1.4,2.8,1.9c0.8,0.2,1.7,0.3,2.6,0.3c0.9,0.1,2.5,0.1,5.1,0.1    l7.9,0l0.6-2.8l-0.7,0C88.2,32.9,85.2,33,81.3,33z"
         id="path11"
         style="fill:#ffffff" /><path
         class="st0"
         d="M113.4,23c-0.5-1.2-1-2.3-1.6-3.3l-0.2-0.3l-1.6,0.4c0.8-0.7,1.4-1.4,2-2l0.5-0.5l-2.4-1.1l-0.3,0.4    c-0.4,0.5-0.9,1.1-1.7,1.9l-0.7-0.6c0.8-0.8,1.6-1.6,2.2-2.4l0.5-0.6l-2.4-1l-0.3,0.4c-0.5,0.7-1.1,1.4-1.6,2.1l-0.5-0.5l-1.7,1.2    c0-0.2,0-0.4,0-0.6v-2.5h-2.8v3.2c0,1,0,1.9,0.1,2.9c0,0.8,0.1,1.5,0.2,2.2c-0.3-0.7-0.7-1.4-1.1-2.2l-0.2-0.4l-1.6,0.4    c0.7-0.7,1.4-1.4,2-2l0.5-0.5l-2.4-1.2l-0.3,0.3c-0.4,0.5-1,1.1-1.7,1.9l-0.7-0.6c0.8-0.8,1.6-1.6,2.2-2.4l0.5-0.6l-2.4-1    l-0.3,0.4c-0.5,0.7-1,1.4-1.6,2.1l-0.5-0.5l-2,1.4l0.5,0.5c1.1,1.1,2,2,2.5,2.5c-0.6,0.5-1.1,1-1.6,1.5l-1.6,0.1l0.3,2.2h-0.6v2.4    h11c0,0.1,0.1,0.3,0.1,0.4H91.9v8.8h2.5v-0.5h8.1v0l0.8,1.1l0.4-0.3c0.9-0.6,1.8-1.2,2.7-2c1.5,1.4,2.8,2.1,4,2.1    c1.6,0,2.1-0.9,2.2-1.5c0.2-0.8,0.4-2.1,0.5-4.1l0-0.5l-2.5-0.5l-0.1,0.6c-0.2,2.1-0.4,2.7-0.4,2.8c-0.1,0.2-0.2,0.2-0.3,0.2    c-0.1,0-0.6-0.1-1.6-1.2c1.1-1.3,2.1-2.8,2.8-4.3l0.2-0.5l-1.7-0.6h3.6V24h-1.5l1.9-0.4L113.4,23z M99.9,32v0.9h-1.5V32H99.9z     M99.9,29v0.8h-1.5V29H99.9z M96,32v0.9h-1.5V32H96z M96,29v0.8h-1.5V29H96z M99.3,24h-6.7l3.1-0.3c1.4-0.1,2.5-0.3,3.4-0.4    c0.1,0.2,0.1,0.3,0.2,0.5L99.3,24z M96.5,21.5c0.4-0.4,0.8-0.7,1.1-1.1l0.2,0.3c0.1,0.1,0.2,0.3,0.3,0.6    C97.6,21.4,97.1,21.4,96.5,21.5z M108.6,26.6c-0.4,1.1-1.1,2.1-1.9,3.3c-0.8-1.1-1.4-2.2-1.8-3.4h3.8L108.6,26.6z M111.1,24h-1.6    c-0.1-0.2-0.3-0.4-0.4-0.5c0.6-0.1,1.2-0.1,1.6-0.2c0.1,0.2,0.1,0.3,0.2,0.4L111.1,24z M108.2,21.4c0.4-0.4,0.8-0.7,1.2-1.1    l0.2,0.3c0.1,0.1,0.2,0.3,0.3,0.6C109.4,21.3,108.8,21.3,108.2,21.4z M106.6,23.7c0.1,0.1,0.1,0.2,0.2,0.3h-2.6c0,0,0,0,0-0.1    L106.6,23.7z M103.8,17.5c1.1,1.1,2,2,2.5,2.5c-0.6,0.6-1.2,1.1-1.7,1.5l-0.8,0c-0.1-1.2-0.2-2.6-0.2-4.3L103.8,17.5z M101.4,23.8    c0,0.1,0,0.1,0,0.2h-0.9L101.4,23.8z M102.5,27.7c0.6,1.6,1.4,3.1,2.3,4.3c-0.7,0.7-1.5,1.3-2.3,1.8V27.7z"
         id="path13"
         style="fill:#ffffff" /><path
         class="st0"
         d="M130.9,28.3c-1.5-2-2.6-4-3.3-5.9h9.1v-2.6h-9.5v-5.8h-3v5.8h-9.5v2.6h9.1c-0.4,2.2-1.4,4.3-3,6.3    c-1.7,2.2-3.9,3.7-6.3,4.6l-0.6,0.2l1.1,2.3l0.5-0.2c2.8-1,5.1-2.6,6.9-4.6c1.5-1.7,2.6-3.6,3.4-5.7c0.8,1.7,1.9,3.5,3.2,5.2    c1.7,2.2,3.6,3.9,5.8,5.2l0.4,0.2l1.9-2.3l-0.6-0.3C134.5,32.2,132.6,30.5,130.9,28.3z"
         id="path15"
         style="fill:#ffffff" /><path
         class="st0"
         d="M150.8,26.4c2.5-1.2,4.6-2.4,6.1-3.7l0.4-0.4l0,0h2.7v-4.8h-3.3c0.5-0.9,1-1.6,1.4-2.3l0.3-0.6l-3-0.8    l-0.2,0.5c-0.3,0.8-0.9,1.9-1.7,3.3H151c-0.4-1.1-1-2.3-1.7-3.5l-0.2-0.4l-2.6,0.8l0.3,0.6c0.5,1.1,1,1.9,1.3,2.6h-2.9    c-0.7-1.3-1.3-2.4-1.7-3.1l-0.2-0.4l-2.7,0.8l0.3,0.6c0.3,0.5,0.7,1.2,1.1,2.1h-3.5v4.8h2.7v-2.3h16.1v2.2l-1.3-1.3h-14.2v2.5h9.8    c-0.8,0.5-1.5,0.8-2.2,1.1h-1.5v2.3H138v2.5h9.9v3.7c0,0,0,0.1-0.1,0.2c-0.1,0.1-0.2,0.1-0.4,0.1h-3.5l0.4,2.7h3.9    c0.7,0,1.4-0.2,1.9-0.7c0.5-0.5,0.8-1,0.8-1.7v-4.4h9.6v-2.5h-9.6V26.4z"
         id="path17"
         style="fill:#ffffff" /><polygon
         class="st0"
         points="174.1,18.6 183.1,18.6 183.1,16 162.4,16 162.4,18.6 171.1,18.6 171.1,32.6 161.5,32.6 161.5,35.1     184,35.1 184,32.6 174.1,32.6   "
         id="polygon19"
         style="fill:#ffffff" /><path
         class="st0"
         d="M202.8,31.6c-0.8-0.3-1.6-0.6-2.3-1h7v-2.5h-10v-0.8h8.4v-2.4h-8.4V24h9v-2.5h-4.9l0.7-1.4h5v-2.5H204    l1.5-2.8l-2.7-0.7l-1.6,3.5h-1.3v-3.8H197v3.8h-1.9v-3.8h-2.8v3.8h-1.2l-1.6-3.5l-2.7,0.7l1.3,2.8h-3.1v2.5h4.7l0.7,1.4H186V24    h8.7v0.9h-8v2.4h8v0.8h-9.8v2.5h7.2c-1.9,1.1-4.3,2-7.2,2.6l-0.6,0.1l0.8,2.3l0.4-0.1c1.8-0.3,3.6-0.8,5.5-1.6    c1.4-0.6,2.7-1.2,3.7-1.9v4.1h2.8v-4.4c2.5,1.7,5.6,3,9.1,3.8l0.4,0.1l1.3-2.5l-0.7-0.1C206.1,32.7,204.5,32.2,202.8,31.6z     M199.3,20.2l-0.7,1.4h-5l-0.7-1.4H199.3z"
         id="path21"
         style="fill:#ffffff" /><polygon
         class="st0"
         points="221.1,13.7 218.1,13.7 218.1,15.3 208.5,15.3 208.5,17.8 230.8,17.8 230.8,15.3 221.1,15.3   "
         id="polygon23"
         style="fill:#ffffff" /><path
         class="st0"
         d="M211.6,18.4v5.5h16.3v-5.5H211.6z M214.4,21.7v-1h10.7v1H214.4z"
         id="path25"
         style="fill:#ffffff" /><path
         class="st0"
         d="M209.4,35.9h2.9V27h14.8v5.9c0,0.2,0,0.2-0.4,0.2H225v-5.5h-10.8v6.6h2.8v-0.5l7,0l0.3,2.1h3.1    c0.7,0,1.3-0.2,1.7-0.6c0.5-0.4,0.7-0.9,0.7-1.6v-9h-20.6V35.9z M222.2,29.9v1.3H217v-1.3H222.2z"
         id="path27"
         style="fill:#ffffff" /><path
         class="st0"
         d="M244.3,23.2h8.7v-2.5h-8.7v-1.1l0,0c0.4-0.4,0.9-1,1.5-1.7h1.7l1.3,2.3l2.8-0.5l-1-1.8h3.5v-2.4h-6.6    c0.1-0.2,0.2-0.4,0.3-0.5l0.3-0.6l-2.8-0.6l-0.2,0.4c-0.5,1.1-1.2,2.1-2,3.2v-1.8h-5.5c0.1-0.2,0.2-0.4,0.3-0.6l0.3-0.6l-2.9-0.5    l-0.2,0.4c-0.3,0.7-0.8,1.6-1.5,2.5c-0.7,1-1.3,1.8-1.9,2.3l-0.5,0.5l2,1.5l0.1-0.1v2.3h7.9v1.2h-9.3v2.5h14.7v1.3h-14.3v2.5h4    l-1.1,0.7l0.5,0.5c1.1,1,2.1,2.1,3,3.2l0.3,0.4l2.5-1.5l-0.4-0.5c-0.9-1-1.8-2-2.6-2.8h8.2v2.2c0,0.2,0,0.4-0.5,0.4h-3.5l0.4,2.7    h3.8c0.7,0,1.4-0.2,1.9-0.7c0.6-0.5,0.8-1.1,0.8-1.8v-2.8h4v-2.5h-4v-1.3h4.7v-2.5h-10.1V23.2z M233.8,20.6    c0.8-0.7,1.5-1.6,2.3-2.7h1.2l1.1,2.3l2.6-0.6l-0.8-1.7h2.4c-0.1,0.1-0.2,0.2-0.2,0.3l-0.5,0.5l1,0.5h-1.5v1.5L233.8,20.6    L233.8,20.6z"
         id="path29"
         style="fill:#ffffff" /><path
         class="st0"
         d="M273.9,27.4h1.9v-9.1h-7.9v-0.7h9.9v-2.4h-9.9v-1.6h-2.8v1.6h-9.5v2.4h9.5v0.7h-7.4v9.1H271v0.9h-15.6v2.5h4    l-0.8,0.7l0.5,0.4c1.7,1.4,2.8,2.5,3.4,3.3l0.4,0.4l2.2-1.9l-0.4-0.4c-0.6-0.6-1.5-1.4-2.7-2.5h9.1v2c0,0.2,0,0.4-0.5,0.4h-3.6    l0.3,2.7h4.1c0.7,0,1.3-0.2,1.8-0.7c0.5-0.5,0.8-1.1,0.8-1.8v-2.6h4.3v-2.5h-4.3V27.4z M265.1,23.9v1.2h-4.6v-1.2H265.1z     M265.1,20.6v1h-4.6v-1H265.1z M273,23.9v1.2h-5.1v-1.2H273z M273,20.6v1h-5.1v-1H273z"
         id="path31"
         style="fill:#ffffff" /><path
         class="st0"
         d="M291,24.4h6.6v8.4c0,0,0,0.1-0.1,0.2c-0.1,0.1-0.2,0.1-0.3,0.1h-3.4l0.3,2.7h3.8c0.6,0,1.2-0.2,1.7-0.6    c0.5-0.4,0.8-1,0.8-1.6V14.6H291V24.4z M293.9,18.3v-1.2h3.7v1.2H293.9z M297.5,20.6v1.3h-3.7v-1.3H297.5z"
         id="path33"
         style="fill:#ffffff" /><path
         class="st0"
         d="M280,35.9h2.8V24.4h6.4v-9.7H280V35.9z M286.4,20.6v1.3h-3.6v-1.3H286.4z M286.4,17.1v1.2h-3.6v-1.2H286.4z"
         id="path35"
         style="fill:#ffffff" /><path
         class="st0"
         d="M325,26.7h-9.6v-0.3c2.5-1.2,4.6-2.4,6.1-3.7l0.4-0.4l0,0h2.7v-4.8h-3.3c0.5-0.9,1-1.6,1.4-2.3l0.3-0.6    l-3-0.8l-0.2,0.5c-0.3,0.8-0.9,1.9-1.7,3.3h-2.5c-0.4-1.1-1-2.3-1.7-3.5l-0.2-0.4l-2.6,0.8l0.3,0.6c0.5,1.1,1,1.9,1.3,2.6h-2.9    c-0.7-1.3-1.3-2.4-1.7-3.1l-0.2-0.4l-2.7,0.8l0.3,0.6c0.3,0.5,0.7,1.2,1.1,2.1H303v4.8h2.7v-2.3h16.1v2.2l-1.3-1.3h-14.2v2.5h9.8    c-0.8,0.5-1.5,0.8-2.2,1.1h-1.5v2.3h-9.9v2.5h9.9v3.7c0,0,0,0.1-0.1,0.2c-0.1,0.1-0.2,0.1-0.4,0.1h-3.5l0.4,2.7h3.9    c0.7,0,1.4-0.2,1.9-0.7c0.5-0.5,0.8-1,0.8-1.7v-4.4h9.6V26.7z"
         id="path37"
         style="fill:#ffffff" /><path
         class="st0"
         d="M348.9,33.3c-2.2-0.7-4.1-1.8-5.9-3.3c1.4-1.8,2.4-3.7,3-5.8L346,24c0.3,0.3,0.6,0.5,0.9,0.7l0.4,0.3l2-2    l-0.6-0.4c-1.6-1.1-3-2.3-4.1-3.7h3.9v-2.5h-6.1v-2.6h-2.8v2.6h-5.8v2l-1.6,0v-4.5h-2.8v4.5h-3.3v2.5h3c-0.3,1.1-0.8,2.4-1.5,3.9    c-0.8,1.9-1.7,3.3-2.5,4.4l-0.3,0.4l1.7,1.7l0.4-0.5c0.9-1.1,1.7-2.3,2.4-3.7v9h2.8v-9.5c0.3,0.3,0.5,0.6,0.9,0.9l0.5,0.5l1.6-2.3    l-0.4-0.3c-1-0.8-1.9-1.6-2.5-2.5v-2.1h2.5v-1.9l2.7,0c-0.8,1.3-2.1,2.7-3.8,4l-0.5,0.4l1.9,1.7l0.4-0.2c0.2-0.2,0.4-0.3,0.6-0.5    l0,0.1c0.6,2.2,1.6,4.1,3,5.8c-1.7,1.5-3.7,2.7-6.1,3.5l-0.6,0.2l1.2,2.3l0.4-0.1c2.6-0.8,5-2.1,7-3.9c1.9,1.7,4.1,3,6.5,3.8    L348,36l1.6-2.4L348.9,33.3z M343.3,23l-0.1,0.5c-0.3,1.5-1.1,3-2.1,4.5c-1-1.3-1.7-2.8-2.3-4.5l-0.2-0.5l-1.7,0.6    c1.2-1.1,2.3-2.3,3.1-3.7l0.3-0.6l-1.1-0.4h3.6l-1,0.5l0.3,0.5c0.5,0.7,1.2,1.6,2.1,2.6c0.4,0.4,0.9,0.8,1.3,1.2L343.3,23z"
         id="path39"
         style="fill:#ffffff" /></g><g
       id="g41"
       style="fill:#ffffff"><path
         class="st0"
         d="M76.2,51.6h-2.5L71,46.4l-0.9,1.2v4H68V39.9h2.2v5.3h0c0.2-0.5,0.5-0.9,0.7-1.3l2.5-3.9h2.6l-3.5,5L76.2,51.6    z"
         id="path43"
         style="fill:#ffffff" /><path
         class="st0"
         d="M77.3,39.9h2.2v11.7h-2.2V39.9z"
         id="path45"
         style="fill:#ffffff" /><path
         class="st0"
         d="M90.2,51.6H88l-2.5-4.8c-0.6-1.2-1.3-2.6-1.8-3.9h-0.1c0.1,1.4,0.1,3.1,0.1,5.2v3.6h-2V39.9h2.4l2.4,4.7    c0.6,1.2,1.3,2.6,1.7,3.8h0c-0.1-1.5-0.2-3.1-0.2-5v-3.5h2V51.6z"
         id="path47"
         style="fill:#ffffff" /><path
         class="st0"
         d="M92.5,40.1c0.8-0.2,1.9-0.2,3-0.2c1.9,0,3.2,0.4,4.2,1.2c1.1,0.9,1.7,2.4,1.7,4.5c0,2.5-0.9,4-1.7,4.8    c-1,1-2.7,1.4-4.7,1.4c-1.1,0-1.9-0.1-2.5-0.2V40.1z M94.7,49.9c0.2,0,0.6,0,0.9,0c2.1,0,3.5-1.3,3.5-4.4c0-2.6-1.3-3.9-3.3-3.9    c-0.5,0-0.8,0-1.1,0.1V49.9z"
         id="path49"
         style="fill:#ffffff" /><path
         class="st0"
         d="M111.5,51.6h-2.3l-0.8-3.1h-3.1l-0.8,3.1h-2.2l3.3-11.7h2.8L111.5,51.6z M108,46.8l-0.7-2.7    c-0.2-0.7-0.4-1.7-0.5-2.4h0c-0.2,0.7-0.3,1.7-0.5,2.4l-0.7,2.7H108z"
         id="path51"
         style="fill:#ffffff" /><path
         class="st0"
         d="M113,39.9h2.2v11.7H113V39.9z"
         id="path53"
         style="fill:#ffffff" /><path
         class="st0"
         d="M129,46.7c0,3.4-1.6,5-4.2,5c-2.6,0-4.1-1.6-4.1-5v-6.9h2.2V47c0,2,0.8,2.9,1.9,2.9c1.2,0,1.9-0.9,1.9-2.9    v-7.1h2.2V46.7z"
         id="path55"
         style="fill:#ffffff" /><path
         class="st0"
         d="M139.6,51.6h-2.2l-2.5-4.8c-0.6-1.2-1.3-2.6-1.8-3.9h-0.1c0.1,1.4,0.1,3.1,0.1,5.2v3.6h-2V39.9h2.4l2.4,4.7    c0.6,1.2,1.3,2.6,1.7,3.8h0c-0.1-1.5-0.2-3.1-0.2-5v-3.5h2V51.6z"
         id="path57"
         style="fill:#ffffff" /><path
         class="st0"
         d="M141.9,39.9h2.2v11.7h-2.2V39.9z"
         id="path59"
         style="fill:#ffffff" /><path
         class="st0"
         d="M154.7,39.9l-3.5,11.7h-2.5l-3.3-11.7h2.4l1.3,5.2c0.3,1.4,0.7,2.8,0.9,4.2h0c0.3-1.4,0.6-2.8,1-4.2l1.3-5.2    H154.7z"
         id="path61"
         style="fill:#ffffff" /><path
         class="st0"
         d="M162.4,51.6h-6.4V39.9h6.2v1.9h-4v2.8h3.8v1.8h-3.8v3.2h4.2V51.6z"
         id="path63"
         style="fill:#ffffff" /><path
         class="st0"
         d="M169.5,46.1c0.8,0.3,1.3,1.1,1.5,2.3c0.3,1.4,0.6,2.8,0.9,3.2h-2.3c-0.2-0.3-0.4-1.3-0.7-2.8    c-0.3-1.5-0.8-2-1.8-2h-0.8v4.7h-2.2V40.1c0.8-0.1,1.8-0.2,3-0.2c1.5,0,4.4,0.2,4.4,3.3C171.4,44.6,170.5,45.6,169.5,46.1    L169.5,46.1z M167.2,45.2c1.3,0,2-0.7,2-1.9c0-1.5-1.1-1.8-1.9-1.8c-0.5,0-0.8,0-1,0.1v3.5H167.2z"
         id="path65"
         style="fill:#ffffff" /><path
         class="st0"
         d="M178.9,42.1c-0.4-0.2-1.1-0.5-2.1-0.5c-1.2,0-1.7,0.6-1.7,1.3c0,0.8,0.6,1.2,2,1.9c1.8,0.8,2.7,1.9,2.7,3.4    c0,2-1.5,3.5-4.2,3.5c-1.1,0-2.3-0.3-2.8-0.7l0.4-1.9c0.6,0.4,1.6,0.7,2.5,0.7c1.2,0,1.9-0.6,1.9-1.5c0-0.8-0.6-1.3-1.8-1.9    c-1.7-0.8-2.8-1.9-2.8-3.4c0-1.9,1.5-3.4,4-3.4c1.1,0,1.9,0.3,2.5,0.5L178.9,42.1z"
         id="path67"
         style="fill:#ffffff" /><path
         class="st0"
         d="M181.5,39.9h2.2v11.7h-2.2V39.9z"
         id="path69"
         style="fill:#ffffff" /><path
         class="st0"
         d="M193,41.9h-2.9v9.7h-2.2v-9.7H185v-1.9h7.9V41.9z"
         id="path71"
         style="fill:#ffffff" /><path
         class="st0"
         d="M202.1,39.9l-3.4,6.8v4.8h-2.2v-4.7l-3.3-6.9h2.5l1.1,2.9c0.3,0.8,0.6,1.6,0.9,2.4h0c0.2-0.8,0.5-1.5,0.8-2.4    l1.1-2.9H202.1z"
         id="path73"
         style="fill:#ffffff" /><path
         class="st0"
         d="M213.5,41.9h-2.9v9.7h-2.2v-9.7h-2.8v-1.9h7.9V41.9z"
         id="path75"
         style="fill:#ffffff" /><path
         class="st0"
         d="M221.2,51.6h-6.5V39.9h6.2v1.9h-4v2.8h3.8v1.8H217v3.2h4.2V51.6z"
         id="path77"
         style="fill:#ffffff" /><path
         class="st0"
         d="M230.3,51.3c-0.4,0.2-1.4,0.4-2.6,0.4c-3.5,0-5.4-2.4-5.4-5.8c0-4.1,2.6-6.1,5.7-6.1c1.2,0,2.1,0.3,2.4,0.4    L230,42c-0.5-0.2-1-0.4-1.8-0.4c-1.9,0-3.4,1.3-3.4,4.1c0,2.6,1.3,4,3.4,4c0.7,0,1.4-0.1,1.9-0.3L230.3,51.3z"
         id="path79"
         style="fill:#ffffff" /><path
         class="st0"
         d="M240.3,51.6h-2.2v-5h-3.9v5h-2.2V39.9h2.2v4.7h3.9v-4.7h2.2V51.6z"
         id="path81"
         style="fill:#ffffff" /><path
         class="st0"
         d="M250.9,51.6h-2.2l-2.5-4.8c-0.6-1.2-1.3-2.6-1.8-3.9h-0.1c0.1,1.4,0.1,3.1,0.1,5.2v3.6h-2V39.9h2.4l2.4,4.7    c0.6,1.2,1.3,2.6,1.7,3.8h0c-0.1-1.5-0.2-3.1-0.2-5v-3.5h2V51.6z"
         id="path83"
         style="fill:#ffffff" /><path
         class="st0"
         d="M253.2,39.9h2.2v11.7h-2.2V39.9z"
         id="path85"
         style="fill:#ffffff" /><path
         class="st0"
         d="M265.1,51.3c-0.4,0.2-1.4,0.4-2.6,0.4c-3.5,0-5.4-2.4-5.4-5.8c0-4.1,2.6-6.1,5.7-6.1c1.2,0,2.1,0.3,2.4,0.4    l-0.4,1.8c-0.5-0.2-1-0.4-1.8-0.4c-1.9,0-3.4,1.3-3.4,4.1c0,2.6,1.3,4,3.4,4c0.7,0,1.4-0.1,1.9-0.3L265.1,51.3z"
         id="path87"
         style="fill:#ffffff" /><path
         class="st0"
         d="M275.1,51.6h-2.3l-0.8-3.1h-3.1l-0.8,3.1h-2.2l3.3-11.7h2.8L275.1,51.6z M271.7,46.8l-0.7-2.7    c-0.2-0.7-0.4-1.7-0.5-2.4h0c-0.2,0.7-0.3,1.7-0.5,2.4l-0.7,2.7H271.7z"
         id="path89"
         style="fill:#ffffff" /><path
         class="st0"
         d="M283,51.6h-6.3V39.9h2.2v9.8h4.1V51.6z"
         id="path91"
         style="fill:#ffffff" /><path
         class="st0"
         d="M295.1,51.3c-0.4,0.2-1.4,0.4-2.6,0.4c-3.5,0-5.4-2.4-5.4-5.8c0-4.1,2.6-6.1,5.7-6.1c1.2,0,2.1,0.3,2.4,0.4    l-0.4,1.8c-0.5-0.2-1-0.4-1.8-0.4c-1.9,0-3.4,1.3-3.4,4.1c0,2.6,1.3,4,3.4,4c0.7,0,1.4-0.1,1.9-0.3L295.1,51.3z"
         id="path93"
         style="fill:#ffffff" /><path
         class="st0"
         d="M305.8,45.6c0,4.1-2,6.1-4.9,6.1c-3,0-4.8-2.6-4.8-6c0-3.5,1.9-6.1,4.9-6.1C304.2,39.7,305.8,42.5,305.8,45.6    z M298.4,45.7c0,2.3,0.9,4.2,2.5,4.2c1.7,0,2.5-1.9,2.5-4.2c0-2.1-0.8-4.1-2.5-4.1C299.2,41.6,298.4,43.6,298.4,45.7z"
         id="path95"
         style="fill:#ffffff" /><path
         class="st0"
         d="M313.8,51.6h-6.3V39.9h2.2v9.8h4.1V51.6z"
         id="path97"
         style="fill:#ffffff" /><path
         class="st0"
         d="M321.7,51.6h-6.3V39.9h2.2v9.8h4.1V51.6z"
         id="path99"
         style="fill:#ffffff" /><path
         class="st0"
         d="M329.6,51.6h-6.5V39.9h6.2v1.9h-4v2.8h3.8v1.8h-3.8v3.2h4.2V51.6z"
         id="path101"
         style="fill:#ffffff" /><path
         class="st0"
         d="M339.7,51.1c-0.7,0.3-2,0.6-3.3,0.6c-1.8,0-3.1-0.5-4.1-1.4c-1-1-1.6-2.6-1.6-4.4c0-3.9,2.6-6.1,5.9-6.1    c1.2,0,2.1,0.2,2.7,0.5l-0.5,1.9c-0.5-0.2-1.2-0.4-2.2-0.4c-2.1,0-3.6,1.3-3.6,4.1c0,2.7,1.4,4.1,3.3,4.1c0.5,0,0.9-0.1,1.1-0.2    v-2.9h-1.7v-1.8h3.8V51.1z"
         id="path103"
         style="fill:#ffffff" /><path
         class="st0"
         d="M348.1,51.6h-6.5V39.9h6.2v1.9h-4v2.8h3.8v1.8h-3.8v3.2h4.2V51.6z"
         id="path105"
         style="fill:#ffffff" /></g><path
       class="st0"
       d="M53.7,12.9L53.7,12.9c-1.4-1.9-3.4-2.7-4.8-2.8c-2-0.2-3.1,0.1-4.5,0.7c-1.2,0.5-2.5,1.4-3.9,2.6   c-1.2,1.1-3,3.4-3.2,3.7c-0.3,0.4-1.5,2-1.7,2.3L35.1,20c-0.2,0.4-0.5,0.8-0.7,1c-0.3,0.4-0.9,1.5-1.1,2l-0.1,0.2   c-0.1,0.2-0.5,1.1-0.7,1.6c-0.2-0.1-0.5-0.2-0.9-0.4c-0.4-0.2-0.7-0.3-0.9-0.4c0.7-0.8,1.3-1.7,2-2.9c0.9-1.5,1.5-3.2,2-4.6   c0.5-1.5,1.2-4.8,1.2-7.2c0-1.8-0.3-3.4-0.8-4.7c-0.4-1.1-1.3-2.2-2.2-3c-1.2-1.1-3.2-1.7-4.9-1.6c-1.7,0.1-3.3,0.9-4.6,2.2   c-2.9,2.8-2.5,6.2-2.5,6.4l0.1,0.5L24.1,9l0-0.5c0,0,0-0.1,0-0.2c0-0.4,0-1.6,0.6-2.6c0.9-1.4,1.8-2.1,3-2.3   c1.1-0.2,2.2,0.1,3.1,0.9c1.9,1.9,1.8,4.8,1.5,7.4c-0.3,2.6-1,4.8-2.2,7.1c-0.7,1.5-1.7,2.7-2.3,3.3c-0.3-0.3-0.8-0.9-1.6-1.8   c-1.5-1.9-2.4-4.7-2.6-5.5c-0.4-1.3-0.5-2.6-0.6-4.3l0-0.5l-3.2,0.1l0,0.5c0,0.6,0.1,2.6,0.5,4.3c0.7,3.3,2.2,5.7,3.2,7.1   c0.6,0.9,1.3,1.7,1.8,2.2c-0.5,0.2-1.1,0.5-1.7,0.7c-0.4-0.9-1.3-2.3-1.7-3c-0.5-0.8-1.9-2.7-2.8-3.8c-0.9-1.1-2.5-2.9-3.4-3.7   c-0.9-0.9-2.5-1.9-2.7-2c-0.2-0.1-0.8-0.5-2.5-1.1c-1.9-0.7-5.5-0.7-7.6,1.4c-2.5,2.4-2.6,5.1-2.5,6.1c0.1,2,1,3.4,1.4,4   c1.3,1.8,3.3,3.4,6.1,4.8c1.8,0.8,3.6,1.3,5.7,1.6c1.8,0.2,3,0.2,4.6,0.1c1.2,0,2.6-0.3,3.3-0.4c0.1,0.4,0.3,1,0.6,2   c0.2,0.7,0.3,1.5,0.4,2c-2.2,0.4-4.3,1.2-6.4,2.3c-2,1.1-4.9,3.7-5.4,4.3c-0.1,0.1-0.2,0.2-0.3,0.3c-0.7,0.7-2.2,2.3-3.1,4.4   c-0.3,0.6-0.7,2.4-0.7,3.6c0.2,2.9,1.7,5.3,4,6.5c1,0.5,2,0.7,3.1,0.7c1.7,0,3.5-0.6,5.2-1.8c3-2.2,4.4-4.9,5.2-6.8   c0.8-1.9,1.3-4,1.7-6.5c0.2-1.5,0.3-3.3,0.3-4.1c1.7-0.2,3.6-0.1,4.5-0.1c0,1,0.2,2.6,0.4,4.3c0.3,2,1,4.2,1.9,6.2   c1,2.3,2.7,4.5,4.6,5.9c1.9,1.4,3.6,2.2,5.6,2.3c1.8,0.1,3.5-0.5,4.8-1.6c1.4-1.2,2.4-3,2.6-4.9c0.2-1.9-0.3-3.9-1.4-5.7   c-1.1-1.8-2.9-3.3-4.1-4.3c-1-0.9-2.5-2-4.5-3c-1.9-1-4.7-1.7-6.5-2c0.1-1.7,0.5-3.3,0.8-4c0.6,0.1,1.8,0.2,2.9,0.3   c1.1,0.1,3.5,0,6.2-0.7c2.4-0.6,4-1.4,5-2c1.8-1,2.7-1.8,3.9-3c1.5-1.5,2.1-3.2,2.3-3.8C55.7,17.2,55.2,15.1,53.7,12.9z M52,17.3   c0.1,2.1-1.2,4-4.1,5.8c-2.9,1.8-5.9,2.4-7.9,2.6c-1.7,0.1-2.9,0.1-4.2-0.1c0.7-1.7,2.5-4.3,2.9-4.9c0.3-0.4,2.3-2.9,2.9-3.6   c0.4-0.4,1.2-1.3,2.5-2.3c1-0.7,2.5-1.6,4.2-1.4c1.6,0.2,2.2,0.8,2.8,1.6C51.6,15.7,51.9,16.6,52,17.3z M31.4,28   c-0.3,1.2-0.7,3.1-0.8,4.4c-1.8-0.1-3.5,0-4.8,0.1c-0.3-2.1-0.7-3.7-1-4.5c1.2-0.4,2.2-1,3.3-1.6C29.2,27.1,30.1,27.5,31.4,28z    M22.7,36.3c0,1.7-0.1,3-0.3,4.2l0,0.1c-0.3,1.4-0.7,3.8-1.9,5.8c-1,1.8-2.7,4.2-5.4,5c-1.2,0.3-2.3,0.3-3.1-0.2   c-0.9-0.5-1.5-1.4-1.9-2.7c-0.7-2.7,1.6-5.3,2.6-6.3l0.1-0.1c1.2-1.2,2.6-2.6,5-4C19.7,37,21.7,36.5,22.7,36.3z M39.5,38.1   c2.7,1.5,5.3,4.2,5.3,4.2c1.5,1.6,2,2.9,2.2,3.7c0.2,1.3,0,2.4-0.7,3.5c-0.2,0.3-1.1,1.5-3.2,1.5c-2-0.1-3.5-1.3-4.8-2.6   c-1.3-1.2-2.4-3.1-3.2-5.4c-0.8-2.3-1.2-4.4-1.3-6.9C35.3,36.4,37.4,36.9,39.5,38.1L39.5,38.1z M20.2,25.8   c-0.6,0.1-1.6,0.2-3.1,0.3c-4.4,0.2-6.9-1-8.7-1.9c-1.9-0.9-3.5-2.6-4.2-3.7c-0.7-1.2-0.5-2.4-0.4-2.8c0.1-0.5,0.6-1.9,1.5-2.5   c0.8-0.6,1.6-0.9,2.5-0.9c0.9,0,2,0.3,3.2,0.9c1.8,0.8,3.8,3.2,5.2,4.9l0.5,0.6C18,22,19.1,23.6,20.2,25.8z"
       id="path107"
       style="fill:#ffffff" /></g></svg>